# xmcd
#
# Track frame offsets: 
#        150
#        8521
#        19639
#        31980
#        38365
#        46996
#        60401
#        78243
#        97387
#        115025
#        123560
#        143653
#        160194
#        169971
#        184174
#        204957
#        216930
#
# Disc length: 3072 seconds
#
# Revision: 0
# Processed by: cddbd v1.5.2PL0 Copyright (c) Steve Scherf et al.
# Submitted via: ExactAudioCopy v0.99pb4
#
DISCID=d60bfe11
DTITLE=Randall Lee Rainwater - Rainwater Rd.
DYEAR=1998
DGENRE=Blues
TTITLE0=Dust My Britches
TTITLE1=Keep Your Lamp Trimmed And Burnin'
TTITLE2=Statesboro Blues
TTITLE3=Rainwater Rd.
TTITLE4=While The Blood Runs Warm In Your Veins
TTITLE5=Elijah's Time
TTITLE6=Western Plain
TTITLE7=Cherokee Tears
TTITLE8=Done Been Up North Too Long
TTITLE9=Tell It To Jesus
TTITLE10=One Kind Favor
TTITLE11=I Got A Bald-Headed Woman
TTITLE12=Fairground Rag
TTITLE13=Motherless Children
TTITLE14=Dobro Moon
TTITLE15=Swing Low Sweet Chariot
TTITLE16=Cool Vibe
EXTD=
EXTT0=
EXTT1=
EXTT2=
EXTT3=
EXTT4=
EXTT5=
EXTT6=
EXTT7=
EXTT8=
EXTT9=
EXTT10=
EXTT11=
EXTT12=
EXTT13=
EXTT14=
EXTT15=
EXTT16=
PLAYORDER=
